<?xml version="1.0" standalone="no"?>
<svg viewBox="0 0 200 200" xmlns="http://www.w3.org/2000/svg">
  <path fill="#D0E2FF" d="M38.8,-59.9C51.7,-52,64.6,-43.7,69.5,-32C74.4,-20.3,71.3,-5.3,67.3,8.4C63.3,22,58.4,34.2,48.8,38.7C39.3,43.1,25,39.9,13.5,41.2C1.9,42.5,-7,48.3,-16.1,48.5C-25.1,48.6,-34.4,43.2,-44.4,36C-54.5,28.9,-65.4,19.9,-70.1,8.2C-74.8,-3.6,-73.3,-18.2,-65.7,-27.9C-58,-37.6,-44.2,-42.4,-32.2,-50.7C-20.2,-58.9,-10.1,-70.6,1.4,-72.8C12.9,-75,25.9,-67.7,38.8,-59.9Z" transform="translate(100 100)" />
</svg>
